<?xml version="1.0" standalone="no"?>
<!DOCTYPE svg PUBLIC "-//W3C//DTD SVG 20010904//EN"
 "http://www.w3.org/TR/2001/REC-SVG-20010904/DTD/svg10.dtd">
<svg version="1.0" xmlns="http://www.w3.org/2000/svg"
 width="1024.000000pt" height="1024.000000pt" viewBox="0 0 1024.000000 1024.000000"
 preserveAspectRatio="xMidYMid meet">

<g transform="translate(0.000000,1024.000000) scale(0.100000,-0.100000)"
fill="#000000" stroke="none">
<path d="M1610 7675 l0 -970 165 -165 165 -165 0 -1250 0 -1250 -165 -165
-165 -165 0 -972 0 -973 902 0 902 0 136 132 c75 73 184 177 242 231 l106 97
1227 0 1227 0 171 -168 c95 -92 201 -196 237 -230 l65 -62 908 0 907 0 0 968
0 967 -170 170 -170 170 0 1245 0 1245 170 170 170 170 0 967 c0 533 -3 968
-7 968 -5 0 -413 0 -907 0 l-899 1 -101 -98 c-56 -54 -167 -160 -248 -235
l-146 -138 -1219 0 -1220 0 -24 26 c-13 14 -121 120 -240 235 l-216 209 -902
2 -901 3 0 -970z m1881 493 c112 -113 218 -216 236 -229 17 -13 34 -36 37 -51
l6 -28 -698 0 -699 0 -6 -682 c-4 -376 -10 -713 -13 -750 l-7 -66 -233 232
-234 233 -7 778 -6 778 710 -5 711 -5 203 -205z m4879 -561 l0 -772 -240 -240
c-131 -131 -241 -237 -244 -234 -3 2 -8 341 -12 752 l-7 747 -699 0 c-384 0
-698 1 -698 3 1 1 112 115 249 254 l249 252 128 4 c71 1 387 4 702 5 l572 2 0
-773z m-750 6 c7 -6 3 -4854 -4 -4919 l-8 -62 -1196 -4 c-659 -2 -1780 -2
-2493 0 l-1296 4 -6 1288 c-4 708 -4 1830 0 2493 l6 1207 1051 2 c1223 3 3939
-3 3946 -9z m-5252 -4499 l7 -729 680 -5 680 -5 3 -22 c2 -16 -49 -74 -222
-251 l-225 -229 -371 -7 c-204 -3 -524 -3 -711 0 l-339 7 0 766 0 766 243 243
c206 206 242 239 245 219 2 -13 6 -352 10 -753z m5584 719 c29 -31 135 -137
236 -236 l182 -179 0 -773 0 -772 -417 -6 c-230 -4 -551 -3 -714 1 l-295 7
-238 243 c-132 133 -236 246 -232 250 4 4 305 8 669 10 364 1 677 5 695 8 l32
5 0 493 c0 550 9 1006 21 1006 4 0 31 -25 61 -57z"/>
<path d="M3030 7068 c0 -150 1 -154 87 -248 27 -30 57 -66 66 -80 16 -23 17
-140 17 -1623 l0 -1599 -52 -67 c-29 -36 -67 -83 -85 -104 l-33 -37 0 -135 0
-135 590 0 590 0 0 865 0 865 910 0 910 0 0 -865 0 -865 590 0 590 0 0 140 0
139 -58 63 c-32 35 -72 82 -90 104 l-32 42 0 1593 0 1594 85 105 85 105 0 138
0 137 -585 0 -585 0 0 -720 0 -720 -910 0 -910 0 0 720 0 720 -590 0 -590 0 0
-132z"/>
</g>
</svg>
